<?xml version="1.0" encoding="UTF-8" standalone="no"?>
<svg
   xmlns:osb="http://www.openswatchbook.org/uri/2009/osb"
   xmlns:dc="http://purl.org/dc/elements/1.1/"
   xmlns:cc="http://creativecommons.org/ns#"
   xmlns:rdf="http://www.w3.org/1999/02/22-rdf-syntax-ns#"
   xmlns:svg="http://www.w3.org/2000/svg"
   xmlns="http://www.w3.org/2000/svg"
   xmlns:sodipodi="http://sodipodi.sourceforge.net/DTD/sodipodi-0.dtd"
   xmlns:inkscape="http://www.inkscape.org/namespaces/inkscape"
   version="1.1"
   width="126"
   height="105.94753"
   viewBox="-20.912666 -30.313 35.56 29.900748"
   id="svg2"
   inkscape:version="0.48.4 r9939"
   sodipodi:docname="AD8232_Heart_Rate_Monitor.svg">
  <metadata
     id="metadata741">
    <rdf:RDF>
      <cc:Work
         rdf:about="">
        <dc:format>image/svg+xml</dc:format>
        <dc:type
           rdf:resource="http://purl.org/dc/dcmitype/StillImage" />
        <dc:title>C:/Users/casey.kuhns/Documents/GitHub/AD8232_Heart_Rate_Monitor/Hardware/AD8232_Heart_Rate_Monitor.brd</dc:title>
      </cc:Work>
    </rdf:RDF>
  </metadata>
  <sodipodi:namedview
     pagecolor="#ffffff"
     bordercolor="#666666"
     borderopacity="1"
     objecttolerance="10"
     gridtolerance="10000"
     guidetolerance="10"
     inkscape:pageopacity="0"
     inkscape:pageshadow="2"
     inkscape:window-width="1920"
     inkscape:window-height="1018"
     id="namedview739"
     showgrid="true"
     showguides="false"
     inkscape:guide-bbox="true"
     inkscape:zoom="4"
     inkscape:cx="80.615415"
     inkscape:cy="32.574264"
     inkscape:window-x="1912"
     inkscape:window-y="-8"
     inkscape:window-maximized="1"
     inkscape:current-layer="svg2"
     fit-margin-top="0"
     fit-margin-left="0"
     fit-margin-right="0"
     fit-margin-bottom="0"
     units="in">
    <inkscape:grid
       type="xygrid"
       id="grid8124"
       empspacing="5"
       visible="true"
       enabled="true"
       snapvisiblegridlinesonly="true"
       units="in"
       spacingx="0.01in"
       spacingy="0.01in"
       originx="-6.2511725e-016in"
       originy="-0.10000001in" />
  </sodipodi:namedview>
  <title
     id="title4">C:/Users/casey.kuhns/Documents/GitHub/AD8232_Heart_Rate_Monitor/Hardware/AD8232_Heart_Rate_Monitor.brd</title>
  <desc
     id="desc6">generated by eagle2svg 1.2, developed by http://www.nicai-systems.de</desc>
  <defs
     id="defs8">
    <linearGradient
       id="linearGradient7346"
       osb:paint="solid">
      <stop
         style="stop-color:#000000;stop-opacity:1;"
         offset="0"
         id="stop7348" />
    </linearGradient>
    <style
       type="text/css"
       id="style10">
path.l20 {stroke:#c8c832; fill:none; }
line.l20 {stroke:#c8c832; fill:none; }
circle.l20 {stroke:#c8c832; fill:none; }
circle.j20 {fill:#c8c832; }
rect.l20 {fill:#c8c832; }
text.l20 {font-family:sans-serif; fill:#c8c832; }
polygon.l20 {fill:#c8c832; }
path.l21 {stroke:#c8c832; fill:none; }
line.l21 {stroke:#c8c832; fill:none; }
circle.l21 {stroke:#c8c832; fill:none; }
circle.j21 {fill:#c8c832; }
rect.l21 {fill:#c8c832; }
text.l21 {font-family:sans-serif; fill:#c8c832; }
polygon.l21 {fill:#c8c832; }
path.l45 {stroke:#c8c8c8; fill:none; }
line.l45 {stroke:#c8c8c8; fill:none; }
circle.l45 {stroke:#c8c8c8; fill:none; }
circle.j45 {fill:#c8c8c8; }
rect.l45 {fill:#c8c8c8; }
text.l45 {font-family:sans-serif; fill:#c8c8c8; }
polygon.l45 {fill:#c8c8c8; }
path.l51 {stroke:#c8c832; fill:none; }
line.l51 {stroke:#c8c832; fill:none; }
circle.l51 {stroke:#c8c832; fill:none; }
circle.j51 {fill:#c8c832; }
rect.l51 {fill:#c8c832; }
text.l51 {font-family:sans-serif; fill:#c8c832; }
polygon.l51 {fill:#c8c832; }
</style>
  </defs>
  <path
     style="fill:#c62717;fill-opacity:1;stroke:none"
     d="m 14.647333,-28.352252 -35.559999,0 0,0 0,27.94000001 35.559999,0 0,-27.94000001 z m -33.019999,0.8885 c 0.911823,0 1.649236,0.7374 1.649236,1.6492 0,0.9118 -0.737413,1.6492 -1.649236,1.6492 -0.911822,0 -1.649237,-0.7374 -1.649237,-1.6492 0,-0.9118 0.737415,-1.6492 1.649237,-1.6492 z m 30.479999,0 c 0.911824,0 1.649236,0.7374 1.649236,1.6492 0,0.9118 -0.737412,1.6492 -1.649236,1.6492 -0.911823,0 -1.649236,-0.7374 -1.649236,-1.6492 0,-0.9118 0.737413,-1.6492 1.649236,-1.6492 z m -31.74118,6.2177 c 0.281418,0 0.511528,0.2213 0.511528,0.5027 0,0.2814 -0.23011,0.5115 -0.511528,0.5115 -0.281418,0 -0.511528,-0.2301 -0.511528,-0.5115 0,-0.2814 0.23011,-0.5027 0.511528,-0.5027 z m 0,2.54 c 0.281418,0 0.511528,0.2213 0.511528,0.5027 0,0.2814 -0.23011,0.5115 -0.511528,0.5115 -0.281418,0 -0.511528,-0.2301 -0.511528,-0.5115 0,-0.2814 0.23011,-0.5027 0.511528,-0.5027 z m 0,2.54 c 0.281418,0 0.511528,0.2213 0.511528,0.5027 0,0.2814 -0.23011,0.5115 -0.511528,0.5115 -0.281418,0 -0.511528,-0.2301 -0.511528,-0.5115 0,-0.2814 0.23011,-0.5027 0.511528,-0.5027 z m 31.74118,11.5534 c 0.911824,0 1.649236,0.7375 1.649236,1.6493 0,0.9118 -0.737412,1.658 -1.649236,1.658 -0.911823,0 -1.649236,-0.7462 -1.649236,-1.658 0,-0.9118 0.737413,-1.6493 1.649236,-1.6493 z m -30.479999,0.01 c 0.911823,0 1.649236,0.7374 1.649236,1.6492 0,0.9118 -0.737413,1.6492 -1.649236,1.6492 -0.911822,0 -1.649237,-0.7374 -1.649237,-1.6492 0,-0.9118 0.737415,-1.6492 1.649237,-1.6492 z m 8.8988193,2.4077 c 0.2814179,0 0.5115278,0.2213 0.5115278,0.5027 0,0.2814 -0.2301099,0.5115 -0.5115278,0.5115 -0.2814181,0 -0.5115281,-0.2301 -0.5115281,-0.5115 0,-0.2814 0.23011,-0.5027 0.5115281,-0.5027 z m 2.54,0 c 0.2814179,0 0.5115278,0.2213 0.5115278,0.5027 0,0.2814 -0.2301099,0.5115 -0.5115278,0.5115 -0.2814179,0 -0.5115278,-0.2301 -0.5115278,-0.5115 0,-0.2814 0.2301099,-0.5027 0.5115278,-0.5027 z m 2.54,0 c 0.2814179,0 0.5115277,0.2213 0.5115277,0.5027 0,0.2814 -0.2301098,0.5115 -0.5115277,0.5115 -0.2814179,0 -0.5115278,-0.2301 -0.5115278,-0.5115 0,-0.2814 0.2301099,-0.5027 0.5115278,-0.5027 z m 2.5399999,0 c 0.281418,0 0.5115279,0.2213 0.5115279,0.5027 0,0.2814 -0.2301099,0.5115 -0.5115279,0.5115 -0.2814178,0 -0.5115277,-0.2301 -0.5115277,-0.5115 0,-0.2814 0.2301099,-0.5027 0.5115277,-0.5027 z m 2.54,0 c 0.2814179,0 0.5115278,0.2213 0.5115278,0.5027 0,0.2814 -0.2301099,0.5115 -0.5115278,0.5115 -0.2814179,0 -0.5115277,-0.2301 -0.5115277,-0.5115 0,-0.2814 0.2301098,-0.5027 0.5115277,-0.5027 z m 2.54,0 c 0.2814179,0 0.5115278,0.2213 0.5115278,0.5027 0,0.2814 -0.2301099,0.5115 -0.5115278,0.5115 -0.2814179,0 -0.5115278,-0.2301 -0.5115278,-0.5115 0,-0.2814 0.2301099,-0.5027 0.5115278,-0.5027 z"
     id="path5142"
     inkscape:connector-curvature="0"
     sodipodi:nodetypes="cccccccsssssssssssssssssssssssssssssssssssssssssssssssssssssssssssssssss" />
  <path
     inkscape:connector-curvature="0"
     id="path13"
     d="m -9.8218988,-4.263352 -0.169478,0.1695 m 0,0 0,0.3389 m 0,0 0.169478,0.1695 m 0,0 0.6779134,0 m 0,0 0.169478,-0.1695 m 0,0 0,-0.3389 m 0,0 -0.169478,-0.1695 m 0,0 -0.338956,0 m 0,0 0,0.339 m 0.508434,-0.8305 -1.0168694,0 m 0,0 1.0168694,-0.6779 m 0,0 -1.0168694,0 m 0,-0.4915 1.0168694,0 m 0,0 0,-0.5084 m 0,0 -0.169478,-0.1695 m 0,0 -0.6779134,0 m 0,0 -0.169478,0.1695 m 0,0 0,0.5084"
     style="fill:none;stroke:#ffffff;stroke-width:0.25400001;stroke-linecap:round;stroke-opacity:1"
     class="l21" />
  <path
     inkscape:connector-curvature="0"
     id="path15"
     d="m -7.2818984,-3.585452 -0.169478,-0.1695 m 0,0 0,-0.3389 m 0,0 0.169478,-0.1695 m 0,0 0.169479,0 m 0,0 0.169478,0.1695 m 0,0 0,0.1695 m 0,-0.1695 0.169478,-0.1695 m 0,0 0.169478,0 m 0,0 0.169478,0.1695 m 0,0 0,0.3389 m 0,0 -0.169478,0.1695 m 0.169478,-1.1694 -0.169478,0 m 0,0 0,-0.1694 m 0,0 0.169478,0 m 0,0 0,0.1694 m -0.847391,-0.5847 -0.169478,-0.1694 m 0,0 0,-0.339 m 0,0 0.169478,-0.1695 m 0,0 0.169479,0 m 0,0 0.169478,0.1695 m 0,0 0,0.1695 m 0,-0.1695 0.169478,-0.1695 m 0,0 0.169478,0 m 0,0 0.169478,0.1695 m 0,0 0,0.339 m 0,0 -0.169478,0.1694 m -0.508434,-1.1694 0.677912,-0.3389 m 0,0 -0.677912,-0.339"
     style="fill:none;stroke:#ffffff;stroke-width:0.25400001;stroke-linecap:round;stroke-opacity:1"
     class="l21" />
  <path
     inkscape:connector-curvature="0"
     id="path17"
     d="m 2.2014926,-3.458452 0,-3.5082 m 0.676609,2.7033 -0.169478,0.1695 m 0,0 0,0.3389 m 0,0 0.169478,0.1695 m 0,0 0.169479,0 m 0,0 0.169478,-0.1695 m 0,0 0,-0.3389 m 0,0 0.169478,-0.1695 m 0,0 0.169478,0 m 0,0 0.169478,0.1695 m 0,0 0,0.3389 m 0,0 -0.169478,0.1695 m -0.847391,-1.1694 1.016869,0 m 0,0 0,-0.5084 m 0,0 -0.169478,-0.1695 m 0,0 -0.677913,0 m 0,0 -0.169478,0.1695 m 0,0 0,0.5084 m 1.016869,-1.1694 -1.016869,0 m 0,0 1.016869,-0.6779 m 0,0 -1.016869,0"
     style="fill:none;stroke:#ffffff;stroke-width:0.25400001;stroke-linecap:round;stroke-opacity:1"
     class="l21" />
  <path
     inkscape:connector-curvature="0"
     id="path19"
     d="m -2.3713764,-3.585452 1.016869,0 m 0,0 0,-0.6779 m -1.016869,-0.9999 0,0.339 m 0,0 0.169478,0.1694 m 0,0 0.677913,0 m 0,0 0.169478,-0.1694 m 0,0 0,-0.339 m 0,0 -0.169478,-0.1695 m 0,0 -0.677913,0 m 0,0 -0.169478,0.1695 m 0.508435,-0.661 0,-0.6779"
     style="fill:none;stroke:#ffffff;stroke-width:0.25400001;stroke-linecap:round;stroke-opacity:1"
     class="l21" />
  <path
     inkscape:connector-curvature="0"
     id="path21"
     d="m 0.1686236,-3.585452 1.016869,0 m 0,0 0,-0.6779 m -1.016869,-0.9999 0,0.339 m 0,0 0.169478,0.1694 m 0,0 0.677913,0 m 0,0 0.169478,-0.1694 m 0,0 0,-0.339 m 0,0 -0.169478,-0.1695 m 0,0 -0.677913,0 m 0,0 -0.169478,0.1695 m 0.508435,-0.661 0,-0.6779 m -0.338957,0.339 0.677913,0"
     style="fill:none;stroke:#ffffff;stroke-width:0.25400001;stroke-linecap:round;stroke-opacity:1"
     class="l21" />
  <path
     inkscape:connector-curvature="0"
     id="path23"
     d="m -18.194707,-6.811552 -0.576225,0 m 0,0 -0.288112,-0.2881 m 0,0 0.288112,-0.2881 m 0,0 0.576225,0 m -0.432169,0.5762 0,-0.5762 m -0.432168,-0.3593 0.864337,0 m 0,0 0,-0.4321 m 0,0 -0.144056,-0.1441 m 0,0 -0.576225,0 m 0,0 -0.144056,0.1441 m 0,0 0,0.4321 m 0.144056,-0.9355 -0.144056,-0.1441 m 0,0 0,-0.2881 m 0,0 0.144056,-0.144 m 0,0 0.144056,0 m 0,0 0.144056,0.144 m 0,0 0.144057,-0.144 m 0,0 0.144056,0 m 0,0 0.144056,0.144 m 0,0 0,0.2881 m 0,0 -0.144056,0.1441 m 0,0 -0.144056,0 m 0,0 -0.144057,-0.1441 m 0,0 -0.144056,0.1441 m 0,0 -0.144056,0 m 0.288112,-0.1441 0,-0.2881 m 0.432169,-1.0795 0,0.5762 m 0,0 -0.576225,-0.5762 m 0,0 -0.144056,0 m 0,0 -0.144056,0.144 m 0,0 0,0.2881 m 0,0 0.144056,0.1441 m 0,-0.9355 -0.144056,-0.1441 m 0,0 0,-0.2881 m 0,0 0.144056,-0.1441 m 0,0 0.144056,0 m 0,0 0.144056,0.1441 m 0,0 0,0.1441 m 0,-0.1441 0.144057,-0.1441 m 0,0 0.144056,0 m 0,0 0.144056,0.1441 m 0,0 0,0.2881 m 0,0 -0.144056,0.1441 m 0.144056,-1.5118 0,0.5762 m 0,0 -0.576225,-0.5762 m 0,0 -0.144056,0 m 0,0 -0.144056,0.1441 m 0,0 0,0.2881 m 0,0 0.144056,0.144"
     style="fill:none;stroke:#ffffff;stroke-width:0.1524;stroke-linecap:round;stroke-miterlimit:4;stroke-opacity:1;stroke-dasharray:none"
     class="l21" />
  <path
     inkscape:connector-curvature="0"
     id="path27"
     d="m -4.9113764,-3.966852 0,0.3389 m 0,0 0.169478,0.1695 m 0,0 0.677913,0 m 0,0 0.169478,-0.1695 m 0,0 0,-0.3389 m 0,0 -0.169478,-0.1695 m 0,0 -0.677913,0 m 0,0 -0.169478,0.1695 m 0,-0.661 0.847391,0 m 0,0 0.169478,-0.1694 m 0,0 0,-0.339 m 0,0 -0.169478,-0.1695 m 0,0 -0.847391,0 m 1.016869,-0.8304 -1.016869,0 m 0,0.3389 0,-0.6779 m 1.016869,-0.4915 -1.016869,0 m 0,0 0,-0.5084 m 0,0 0.169478,-0.1695 m 0,0 0.338957,0 m 0,0 0.169478,0.1695 m 0,0 0,0.5084 m -0.677913,-1.1694 0.847391,0 m 0,0 0.169478,-0.1694 m 0,0 0,-0.339 m 0,0 -0.169478,-0.1695 m 0,0 -0.847391,0 m 1.016869,-0.8304 -1.016869,0 m 0,0.3389 0,-0.6779"
     style="fill:none;stroke:#ffffff;stroke-width:0.25400001;stroke-linecap:round;stroke-opacity:1"
     class="l21" />
  <path
     inkscape:connector-curvature="0"
     id="path29"
     d="m -17.762907,-18.724752 0,1.0677 m 0,0 0.711806,0 m 0.457591,0 0,-0.7118 m 0,0 0.355903,-0.3559 m 0,0 0.355903,0.3559 m 0,0 0,0.7118 m -0.711806,-0.5338 0.711806,0"
     style="fill:none;stroke:#ffffff;stroke-width:0.2032;stroke-linecap:round;stroke-opacity:1"
     class="l21" />
  <path
     inkscape:connector-curvature="0"
     id="path31"
     d="m -17.762907,-20.197052 0,-1.0677 m 0,0 0.533856,0 m 0,0 0.17795,0.178 m 0,0 0,0.3559 m 0,0 -0.17795,0.1779 m 0,0 -0.533856,0 m 0.355903,0 0.355903,0.3559 m 0.457591,0 0,-0.7118 m 0,0 0.355903,-0.3559 m 0,0 0.355903,0.3559 m 0,0 0,0.7118 m -0.711806,-0.5338 0.711806,0"
     style="fill:none;stroke:#ffffff;stroke-width:0.2032;stroke-linecap:round;stroke-opacity:1"
     class="l21" />
  <path
     inkscape:connector-curvature="0"
     id="path33"
     d="m -17.762907,-15.117052 0,-1.0677 m 0,0 0.533856,0 m 0,0 0.17795,0.178 m 0,0 0,0.3559 m 0,0 -0.17795,0.1779 m 0,0 -0.533856,0 m 0.355903,0 0.355903,0.3559 m 0.457591,-1.0677 0,1.0677 m 0,0 0.711806,0"
     style="fill:none;stroke:#ffffff;stroke-width:0.2032;stroke-linecap:round;stroke-opacity:1"
     class="l21" />
  <path
     inkscape:connector-curvature="0"
     id="path35"
     d="m -17.013607,-5.553952 -0.686384,0 m 0.343193,0 0,-0.4576 m -0.343193,0 0.686384,0 m 0,-0.634 0,0.2288 m 0,0 -0.114397,0.1144 m 0,0 -0.228794,0 m 0,0 -0.1144,-0.1144 m 0,0 0,-0.2288 m 0,0 0.1144,-0.1144 m 0,0 0.114397,0 m 0,0 0,0.4576 m -0.228797,-0.8628 0,-0.2288 m 0,0 0.1144,-0.1144 m 0,0 0.343191,0 m 0,0 0,0.3432 m 0,0 -0.114397,0.1144 m 0,0 -0.114397,-0.1144 m 0,0 0,-0.3432 m 0.228794,-0.2908 -0.457591,0 m 0.228797,0 -0.228797,-0.2288 m 0,0 0,-0.1144 m -0.114396,-0.3949 0.45759,0 m 0,0 0.114397,-0.1144 m -0.457591,0.2288 0,-0.2288 m 0.457591,-1.0186 -0.686384,0 m 0,0 0.228793,-0.2288 m 0,0 -0.228793,-0.2287 m 0,0 0.686384,0 m 0,-0.4053 0,-0.2288 m 0,0 -0.114397,-0.1144 m 0,0 -0.228794,0 m 0,0 -0.1144,0.1144 m 0,0 0,0.2288 m 0,0 0.1144,0.1144 m 0,0 0.228794,0 m 0,0 0.114397,-0.1144 m 0,-0.634 -0.457591,0 m 0,0 0,-0.3432 m 0,0 0.1144,-0.1144 m 0,0 0.343191,0 m -0.457591,-0.2908 0,-0.1144 m 0,0 0.457591,0 m 0,0.1144 0,-0.2288 m -0.800784,0.1144 0.1144,0 m 0.114397,-0.4989 0.45759,0 m 0,0 0.114397,-0.1144 m -0.457591,0.2288 0,-0.2288 m 0.457591,-0.3846 0,-0.2288 m 0,0 -0.114397,-0.1144 m 0,0 -0.228794,0 m 0,0 -0.1144,0.1144 m 0,0 0,0.2288 m 0,0 0.1144,0.1144 m 0,0 0.228794,0 m 0,0 0.114397,-0.1144 m 0,-0.634 -0.457591,0 m 0.228797,0 -0.228797,-0.2288 m 0,0 0,-0.1144"
     style="fill:none;stroke:#ffffff;stroke-width:0.127;stroke-linecap:round;stroke-opacity:1"
     class="l21" />
  <path
     inkscape:connector-curvature="0"
     id="path37"
     d="m -15.413991,-1.489952 0.686384,0 m 0,0 0,-0.4576 m -0.686384,-0.7484 0,0.4576 m 0,0 0.686384,0 m 0,0 0,-0.4576 m -0.343191,0.4576 0,-0.2288 m -0.343193,-0.5196 0.686384,0 m 0,0 0,-0.3432 m 0,0 -0.114397,-0.1144 m 0,0 -0.45759,0 m 0,0 -0.114397,0.1144 m 0,0 0,0.3432"
     style="fill:none;stroke:#ffffff;stroke-width:0.127;stroke-linecap:round;stroke-opacity:1"
     class="l21" />
  <line
     id="line47"
     style="fill:none;stroke:#ffffff;stroke-width:0.4064;stroke-linecap:round;stroke-opacity:1"
     y2="-8.7925282"
     x2="-8.9745083"
     y1="-5.7444324"
     x1="-13.038507"
     class="l21" />
  <line
     id="line49"
     style="fill:none;stroke:#ffffff;stroke-width:0.4064;stroke-linecap:round;stroke-opacity:1"
     y2="-11.840381"
     x2="-13.038507"
     y1="-8.7925282"
     x1="-8.9745083"
     class="l21" />
  <path
     inkscape:connector-curvature="0"
     id="path51"
     style="fill:none;stroke:#ffffff;stroke-width:0.4064;stroke-linecap:round;stroke-opacity:1"
     d="m -14.562507,-8.792452 a 1.703884,1.703884 0 1 0 1.524,3.048"
     class="l21" />
  <path
     inkscape:connector-curvature="0"
     id="path53"
     style="fill:none;stroke:#ffffff;stroke-width:0.4064;stroke-linecap:round;stroke-opacity:1"
     d="m -13.038507,-11.840452 a 1.7038842,1.7038842 0 1 0 -1.524,3.048"
     class="l21" />
  <line
     id="line55"
     style="fill:none;stroke:#ffffff;stroke-width:0.2032;stroke-linecap:round;stroke-opacity:1"
     y2="-27.207323"
     x2="-0.71950662"
     y1="-27.207323"
     x1="-0.84650737"
     class="l21" />
  <line
     id="line57"
     style="fill:none;stroke:#ffffff;stroke-width:0.2032;stroke-linecap:round;stroke-opacity:1"
     y2="-25.683397"
     x2="-0.84650737"
     y1="-27.207323"
     x1="-0.84650737"
     class="l21" />
  <line
     id="line59"
     style="fill:none;stroke:#ffffff;stroke-width:0.2032;stroke-linecap:round;stroke-opacity:1"
     y2="-25.683397"
     x2="-0.71950662"
     y1="-25.683397"
     x1="-0.84650737"
     class="l21" />
  <line
     id="line61"
     style="fill:none;stroke:#ffffff;stroke-width:0.2032;stroke-linecap:round;stroke-opacity:1"
     y2="-27.207323"
     x2="4.1064916"
     y1="-27.207323"
     x1="3.9794927"
     class="l21" />
  <line
     id="line63"
     style="fill:none;stroke:#ffffff;stroke-width:0.2032;stroke-linecap:round;stroke-opacity:1"
     y2="-25.683397"
     x2="4.1064916"
     y1="-27.207323"
     x1="4.1064916"
     class="l21" />
  <line
     id="line65"
     style="fill:none;stroke:#ffffff;stroke-width:0.2032;stroke-linecap:round;stroke-opacity:1"
     y2="-25.683397"
     x2="3.9794927"
     y1="-25.683397"
     x1="4.1064916"
     class="l21" />
  <line
     id="line67"
     style="fill:none;stroke:#ffffff;stroke-width:0.2032;stroke-linecap:round;stroke-opacity:1"
     y2="-20.095507"
     x2="9.0594921"
     y1="-19.968309"
     x1="9.0594921"
     class="l21" />
  <line
     id="line69"
     style="fill:none;stroke:#ffffff;stroke-width:0.2032;stroke-linecap:round;stroke-opacity:1"
     y2="-20.095507"
     x2="10.583493"
     y1="-20.095507"
     x1="9.0594921"
     class="l21" />
  <line
     id="line71"
     style="fill:none;stroke:#ffffff;stroke-width:0.2032;stroke-linecap:round;stroke-opacity:1"
     y2="-19.968309"
     x2="10.583493"
     y1="-20.095507"
     x1="10.583493"
     class="l21" />
  <line
     id="line73"
     style="fill:none;stroke:#ffffff;stroke-width:0.2032;stroke-linecap:round;stroke-opacity:1"
     y2="-15.269336"
     x2="10.583493"
     y1="-15.396533"
     x1="10.583493"
     class="l21" />
  <line
     id="line75"
     style="fill:none;stroke:#ffffff;stroke-width:0.2032;stroke-linecap:round;stroke-opacity:1"
     y2="-15.269336"
     x2="9.0594921"
     y1="-15.269336"
     x1="10.583493"
     class="l21" />
  <line
     id="line77"
     style="fill:none;stroke:#ffffff;stroke-width:0.2032;stroke-linecap:round;stroke-opacity:1"
     y2="-15.396533"
     x2="9.0594921"
     y1="-15.269336"
     x1="9.0594921"
     class="l21" />
  <g
     id="g165"
     style="fill:none;stroke:#ffffff;stroke-opacity:1"
     transform="translate(-20.912507,-0.41045199)">
    <title
       id="title167">PART D1</title>
    <line
       id="line169"
       style="fill:none;stroke:#ffffff;stroke-width:0.2032;stroke-linecap:round;stroke-opacity:1"
       y2="-8.382"
       x2="8.2119999"
       y1="-8.842"
       x1="8.2119999"
       class="l21" />
    <line
       id="line171"
       style="fill:none;stroke:#ffffff;stroke-width:0.2032;stroke-linecap:round;stroke-opacity:1"
       y2="-8.382"
       x2="8.2119999"
       y1="-7.9219999"
       x1="8.2119999"
       class="l21" />
    <line
       id="line173"
       style="fill:none;stroke:#ffffff;stroke-width:0.2032;stroke-linecap:round;stroke-opacity:1"
       y2="-8.6157999"
       x2="8.5220003"
       y1="-8.382"
       x1="8.2119999"
       class="l21" />
    <line
       id="line175"
       style="fill:none;stroke:#ffffff;stroke-width:0.2032;stroke-linecap:round;stroke-opacity:1"
       y2="-8.1636"
       x2="8.5220003"
       y1="-8.3565998"
       x1="8.2273998"
       class="l21" />
  </g>
  <g
     id="g177"
     transform="translate(0,-7.7783882)">
    <title
       id="title179">PART FID1</title>
  </g>
  <g
     id="g181"
     transform="translate(0,-7.7783882)">
    <title
       id="title183">PART FID2</title>
  </g>
  <g
     id="g379"
     style="fill:#ffffff;fill-opacity:1;stroke:none"
     transform="translate(-20.912507,-0.41045199)">
    <title
       id="title381">PART LOGO2</title>
    <polygon
       style="fill:#ffffff;fill-opacity:1;stroke:none"
       id="polygon383"
       points="32.985,-7.285 32.985,-7.245 32.985,-7.195 32.985,-7.145 32.985,-7.105 32.985,-7.055 32.935,-7.045 32.885,-7.025 32.855,-7.005 32.835,-6.975 32.815,-6.935 32.795,-6.885 32.795,-6.845 32.795,-6.795 32.795,-6.755 32.795,-6.715 32.805,-6.685 32.815,-6.645 32.825,-6.615 32.855,-6.595 32.885,-6.575 32.925,-6.575 32.965,-6.585 33.005,-6.615 33.035,-6.655 33.065,-6.715 33.085,-6.775 33.095,-6.855 33.115,-6.935 33.135,-7.015 33.155,-7.095 33.175,-7.185 33.215,-7.255 33.255,-7.325 33.305,-7.385 33.365,-7.425 33.435,-7.455 33.525,-7.465 33.655,-7.445 33.765,-7.405 33.845,-7.345 33.915,-7.265 33.965,-7.165 33.995,-7.055 34.015,-6.935 34.025,-6.815 34.015,-6.695 33.995,-6.575 33.965,-6.465 33.915,-6.365 33.845,-6.285 33.755,-6.215 33.655,-6.175 33.525,-6.155 33.525,-6.195 33.525,-6.245 33.525,-6.295 33.525,-6.335 33.525,-6.385 33.525,-6.425 33.525,-6.475 33.525,-6.525 33.585,-6.525 33.635,-6.545 33.675,-6.575 33.705,-6.615 33.735,-6.655 33.745,-6.715 33.755,-6.765 33.765,-6.825 33.755,-6.865 33.755,-6.905 33.745,-6.945 33.725,-6.985 33.695,-7.025 33.665,-7.055 33.625,-7.065 33.585,-7.075 33.545,-7.065 33.505,-7.045 33.475,-7.005 33.445,-6.955 33.425,-6.895 33.405,-6.815 33.385,-6.735 33.365,-6.635 33.345,-6.545 33.315,-6.465 33.285,-6.395 33.245,-6.325 33.205,-6.265 33.145,-6.225 33.075,-6.195 32.985,-6.185 32.865,-6.195 32.765,-6.235 32.685,-6.305 32.625,-6.375 32.575,-6.475 32.555,-6.575 32.535,-6.685 32.535,-6.805 32.535,-6.915 32.555,-7.025 32.585,-7.125 32.625,-7.215 32.685,-7.295 32.765,-7.355 32.865,-7.405 32.985,-7.425 32.985,-7.375 32.985,-7.335 "
       class="l21" />
    <polygon
       style="fill:#ffffff;fill-opacity:1;stroke:none"
       id="polygon385"
       points="33.285,-8.665 33.295,-9.055 33.435,-9.045 33.565,-9.015 33.685,-8.965 33.525,-8.625 33.445,-8.655 33.365,-8.665 "
       class="l21" />
    <polygon
       style="fill:#ffffff;fill-opacity:1;stroke:none"
       id="polygon387"
       points="32.685,-7.995 32.705,-7.995 32.725,-7.995 32.745,-7.995 32.695,-8.035 32.655,-8.075 32.615,-8.125 32.585,-8.175 32.555,-8.225 32.545,-8.285 32.535,-8.345 32.535,-8.415 32.545,-8.565 32.595,-8.705 32.665,-8.815 32.765,-8.905 32.875,-8.975 33.005,-9.015 33.145,-9.045 33.295,-9.055 33.285,-8.665 33.195,-8.665 33.115,-8.655 33.035,-8.625 32.965,-8.595 32.905,-8.545 32.865,-8.485 32.835,-8.415 32.825,-8.325 32.835,-8.245 32.865,-8.165 32.905,-8.115 32.965,-8.065 33.035,-8.035 33.115,-8.005 33.195,-7.995 33.285,-7.995 33.365,-7.995 33.445,-8.015 33.525,-8.035 33.595,-8.065 33.645,-8.115 33.695,-8.175 33.715,-8.245 33.725,-8.335 33.715,-8.415 33.695,-8.495 33.645,-8.555 33.595,-8.595 33.525,-8.625 33.685,-8.965 33.795,-8.905 33.885,-8.815 33.965,-8.705 34.005,-8.585 34.025,-8.435 34.015,-8.375 34.005,-8.315 33.995,-8.255 33.965,-8.195 33.935,-8.145 33.905,-8.095 33.855,-8.055 33.805,-8.015 33.805,-8.005 33.935,-8.005 34.065,-8.005 34.185,-8.005 34.315,-8.005 34.445,-8.005 34.575,-8.005 34.695,-8.005 34.825,-8.005 34.785,-7.965 34.735,-7.915 34.695,-7.865 34.655,-7.815 34.615,-7.765 34.565,-7.715 34.525,-7.675 34.485,-7.625 34.245,-7.625 34.015,-7.625 33.785,-7.625 33.555,-7.625 33.325,-7.625 33.095,-7.625 32.865,-7.625 32.635,-7.625 32.625,-7.665 32.615,-7.715 32.615,-7.765 32.605,-7.805 32.595,-7.855 32.585,-7.895 32.575,-7.945 32.565,-7.995 32.595,-7.995 32.615,-7.995 32.635,-7.995 32.655,-7.995 "
       class="l21" />
    <polygon
       style="fill:#ffffff;fill-opacity:1;stroke:none"
       id="polygon389"
       points="33.355,-9.905 33.365,-9.875 33.365,-9.855 33.365,-9.835 33.375,-9.805 33.375,-9.785 33.375,-9.765 33.385,-9.745 33.385,-9.725 33.175,-9.645 33.165,-9.735 33.155,-9.825 33.145,-9.895 33.345,-9.945 33.355,-9.925 "
       class="l21" />
    <polygon
       style="fill:#ffffff;fill-opacity:1;stroke:none"
       id="polygon391"
       points="33.375,-10.105 33.365,-10.105 33.355,-10.105 33.345,-10.105 33.335,-10.105 33.325,-10.105 33.315,-10.105 33.305,-10.105 33.295,-10.105 33.305,-10.095 33.315,-10.085 33.315,-10.065 33.325,-10.045 33.335,-10.025 33.335,-10.005 33.345,-9.985 33.345,-9.965 33.345,-9.945 33.145,-9.895 33.125,-9.965 33.105,-10.025 33.075,-10.075 33.035,-10.105 32.985,-10.105 32.955,-10.105 32.925,-10.105 32.905,-10.095 32.885,-10.085 32.865,-10.075 32.855,-10.065 32.835,-10.055 32.825,-10.035 32.815,-10.015 32.805,-9.995 32.805,-9.975 32.795,-9.955 32.795,-9.935 32.795,-9.905 32.795,-9.885 32.795,-9.855 32.795,-9.835 32.795,-9.805 32.795,-9.775 32.805,-9.755 32.815,-9.735 32.825,-9.715 32.835,-9.695 32.845,-9.675 32.855,-9.665 32.875,-9.645 32.885,-9.635 32.905,-9.625 32.935,-9.615 32.955,-9.605 32.975,-9.605 33.005,-9.605 33.005,-9.575 33.005,-9.555 33.005,-9.525 33.005,-9.505 33.005,-9.475 33.005,-9.455 33.005,-9.435 33.005,-9.405 33.005,-9.385 33.005,-9.355 33.005,-9.335 33.005,-9.305 33.005,-9.285 33.005,-9.265 33.005,-9.235 33.005,-9.215 32.945,-9.225 32.885,-9.235 32.825,-9.255 32.785,-9.285 32.735,-9.315 32.695,-9.345 32.665,-9.385 32.635,-9.435 32.605,-9.485 32.585,-9.535 32.575,-9.585 32.555,-9.645 32.545,-9.705 32.535,-9.755 32.535,-9.815 32.535,-9.875 32.535,-9.935 32.535,-9.985 32.545,-10.035 32.545,-10.095 32.555,-10.145 32.575,-10.195 32.585,-10.245 32.605,-10.295 32.635,-10.335 32.665,-10.375 32.695,-10.415 32.735,-10.445 32.775,-10.465 32.825,-10.485 32.875,-10.495 32.935,-10.495 32.985,-10.495 33.025,-10.495 33.075,-10.495 33.125,-10.495 33.165,-10.495 33.215,-10.495 33.255,-10.495 33.305,-10.495 33.355,-10.495 33.395,-10.495 33.445,-10.495 33.485,-10.495 33.535,-10.495 33.585,-10.495 33.625,-10.495 33.675,-10.495 33.695,-10.495 33.725,-10.495 33.745,-10.495 33.765,-10.505 33.795,-10.505 33.815,-10.505 33.835,-10.505 33.855,-10.505 33.875,-10.515 33.895,-10.515 33.915,-10.525 33.935,-10.525 33.945,-10.525 33.965,-10.535 33.975,-10.545 33.985,-10.545 33.985,-10.525 33.985,-10.495 33.985,-10.475 33.985,-10.445 33.985,-10.425 33.985,-10.395 33.985,-10.375 33.985,-10.355 33.985,-10.325 33.985,-10.305 33.985,-10.275 33.985,-10.255 33.985,-10.225 33.985,-10.205 33.985,-10.175 33.985,-10.155 33.975,-10.155 33.965,-10.145 33.955,-10.145 33.945,-10.135 33.935,-10.135 33.925,-10.135 33.915,-10.135 33.905,-10.125 33.895,-10.125 33.885,-10.125 33.875,-10.125 33.865,-10.125 33.855,-10.125 33.845,-10.125 33.875,-10.105 33.895,-10.075 33.915,-10.055 33.935,-10.025 33.945,-9.995 33.965,-9.965 33.975,-9.935 33.985,-9.905 33.995,-9.875 34.005,-9.845 34.005,-9.815 34.015,-9.785 34.015,-9.745 34.025,-9.715 34.025,-9.685 34.025,-9.655 34.025,-9.605 34.015,-9.555 34.015,-9.505 34.005,-9.465 33.985,-9.415 33.965,-9.375 33.945,-9.345 33.925,-9.305 33.895,-9.275 33.865,-9.255 33.825,-9.225 33.795,-9.205 33.745,-9.195 33.705,-9.175 33.655,-9.175 33.605,-9.165 33.495,-9.185 33.405,-9.215 33.335,-9.255 33.275,-9.325 33.235,-9.395 33.205,-9.475 33.185,-9.555 33.175,-9.645 33.385,-9.725 33.395,-9.695 33.405,-9.675 33.415,-9.665 33.425,-9.645 33.435,-9.625 33.445,-9.615 33.455,-9.595 33.475,-9.585 33.495,-9.575 33.515,-9.565 33.535,-9.565 33.555,-9.555 33.585,-9.555 33.605,-9.555 33.635,-9.565 33.655,-9.565 33.675,-9.575 33.685,-9.585 33.705,-9.595 33.715,-9.615 33.725,-9.625 33.735,-9.645 33.745,-9.665 33.745,-9.685 33.755,-9.705 33.755,-9.725 33.765,-9.745 33.765,-9.775 33.765,-9.795 33.755,-9.845 33.755,-9.895 33.735,-9.935 33.725,-9.975 33.705,-10.005 33.685,-10.025 33.655,-10.045 33.635,-10.065 33.605,-10.075 33.575,-10.085 33.555,-10.095 33.525,-10.105 33.495,-10.105 33.475,-10.105 33.455,-10.105 33.435,-10.105 33.425,-10.105 33.415,-10.105 33.405,-10.105 33.395,-10.105 33.385,-10.105 "
       class="l21" />
    <polygon
       style="fill:#ffffff;fill-opacity:1;stroke:none"
       id="polygon393"
       points="32.965,-11.235 33.025,-11.185 33.095,-11.145 33.165,-11.125 33.255,-11.105 33.345,-11.105 33.425,-11.105 33.505,-11.105 33.585,-11.105 33.665,-11.105 33.745,-11.105 33.825,-11.105 33.905,-11.105 33.985,-11.105 33.985,-11.055 33.985,-11.005 33.985,-10.955 33.985,-10.905 33.985,-10.855 33.985,-10.815 33.985,-10.765 33.985,-10.715 33.815,-10.715 33.645,-10.715 33.475,-10.715 33.305,-10.715 33.145,-10.715 32.975,-10.715 32.805,-10.715 32.635,-10.715 32.625,-10.765 32.615,-10.805 32.615,-10.855 32.605,-10.905 32.595,-10.945 32.585,-10.995 32.575,-11.045 32.565,-11.085 32.605,-11.085 32.635,-11.085 32.665,-11.085 32.705,-11.085 32.735,-11.085 32.765,-11.085 32.795,-11.085 32.835,-11.085 32.765,-11.125 32.715,-11.165 32.655,-11.215 32.615,-11.265 32.575,-11.335 32.555,-11.395 32.535,-11.465 32.535,-11.545 32.535,-11.555 32.535,-11.565 32.535,-11.575 32.535,-11.585 32.535,-11.595 32.535,-11.605 32.545,-11.615 32.545,-11.625 32.595,-11.625 32.635,-11.625 32.685,-11.625 32.725,-11.625 32.775,-11.625 32.815,-11.625 32.865,-11.625 32.905,-11.625 32.905,-11.615 32.895,-11.595 32.895,-11.575 32.895,-11.555 32.895,-11.545 32.895,-11.525 32.895,-11.505 32.895,-11.485 32.905,-11.385 32.925,-11.305 "
       class="l21" />
    <polygon
       style="fill:#ffffff;fill-opacity:1;stroke:none"
       id="polygon395"
       points="32.565,-12.655 32.565,-13.115 33.085,-12.585 33.985,-13.175 33.985,-12.705 33.355,-12.315 33.495,-12.165 33.985,-12.165 33.985,-11.775 32.245,-11.775 32.035,-12.165 33.075,-12.165 "
       class="l21" />
    <polygon
       style="fill:#ffffff;fill-opacity:1;stroke:none"
       id="polygon397"
       points="32.145,-14.085 32.185,-14.085 32.225,-14.085 32.255,-14.085 32.295,-14.085 32.325,-14.085 32.325,-14.075 32.325,-14.055 32.325,-14.035 32.325,-14.015 32.325,-14.005 32.325,-13.985 32.325,-13.965 32.325,-13.945 32.325,-13.915 32.335,-13.875 32.345,-13.855 32.355,-13.835 32.385,-13.815 32.405,-13.805 32.445,-13.805 32.485,-13.795 32.495,-13.795 32.505,-13.795 32.515,-13.795 32.525,-13.795 32.535,-13.795 32.545,-13.795 32.555,-13.795 32.565,-13.795 32.565,-13.835 32.565,-13.865 32.565,-13.905 32.565,-13.935 32.565,-13.965 32.565,-14.005 32.565,-14.035 32.565,-14.065 32.605,-14.065 32.635,-14.065 32.665,-14.065 32.695,-14.065 32.735,-14.065 32.765,-14.065 32.795,-14.065 32.825,-14.065 32.825,-14.035 32.825,-14.005 32.825,-13.965 32.825,-13.935 32.825,-13.905 32.825,-13.865 32.825,-13.835 32.825,-13.795 32.975,-13.795 33.115,-13.795 33.265,-13.795 33.405,-13.795 33.555,-13.795 33.695,-13.795 33.835,-13.795 33.985,-13.795 33.985,-13.755 33.985,-13.705 33.985,-13.655 33.985,-13.605 33.985,-13.555 33.985,-13.505 33.985,-13.455 33.985,-13.415 33.835,-13.415 33.695,-13.415 33.555,-13.415 33.405,-13.415 33.265,-13.415 33.115,-13.415 32.975,-13.415 32.825,-13.415 32.825,-13.365 32.825,-13.315 32.825,-13.265 32.825,-13.225 32.825,-13.175 32.825,-13.125 32.825,-13.075 32.825,-13.025 32.795,-13.065 32.765,-13.095 32.735,-13.125 32.695,-13.165 32.665,-13.195 32.635,-13.225 32.605,-13.265 32.565,-13.295 32.565,-13.305 32.565,-13.325 32.565,-13.335 32.565,-13.355 32.565,-13.365 32.565,-13.385 32.565,-13.395 32.565,-13.415 32.555,-13.415 32.545,-13.415 32.525,-13.415 32.515,-13.415 32.505,-13.415 32.485,-13.415 32.475,-13.415 32.465,-13.415 32.365,-13.415 32.285,-13.445 32.215,-13.475 32.155,-13.525 32.105,-13.595 32.065,-13.675 32.035,-13.775 32.035,-13.885 32.035,-13.915 32.035,-13.935 32.035,-13.965 32.035,-13.985 32.035,-14.015 32.035,-14.035 32.035,-14.065 32.045,-14.085 32.075,-14.085 32.115,-14.085 "
       class="l21" />
    <polygon
       style="fill:#ffffff;fill-opacity:1;stroke:none"
       id="polygon399"
       points="32.765,-14.565 32.865,-14.565 32.965,-14.565 33.065,-14.565 33.165,-14.565 33.265,-14.565 33.365,-14.565 33.445,-14.575 33.525,-14.585 33.585,-14.595 33.625,-14.625 33.665,-14.655 33.695,-14.705 33.705,-14.755 33.715,-14.815 33.705,-14.895 33.695,-14.955 33.665,-15.005 33.625,-15.045 33.565,-15.075 33.495,-15.105 33.415,-15.115 33.315,-15.115 33.215,-15.115 33.125,-15.115 33.035,-15.115 32.945,-15.115 32.845,-15.115 32.755,-15.115 32.665,-15.115 32.565,-15.115 32.565,-15.165 32.565,-15.215 32.565,-15.265 32.565,-15.315 32.565,-15.365 32.565,-15.415 32.565,-15.455 32.565,-15.505 32.745,-15.505 32.925,-15.505 33.095,-15.505 33.275,-15.505 33.455,-15.505 33.635,-15.505 33.805,-15.505 33.985,-15.505 33.985,-15.455 33.985,-15.415 33.985,-15.365 33.985,-15.315 33.985,-15.275 33.985,-15.225 33.985,-15.185 33.985,-15.135 33.955,-15.135 33.935,-15.135 33.905,-15.135 33.885,-15.135 33.865,-15.135 33.835,-15.135 33.815,-15.135 33.785,-15.135 33.785,-15.125 33.845,-15.085 33.895,-15.045 33.935,-14.995 33.965,-14.935 33.985,-14.885 34.005,-14.825 34.015,-14.755 34.025,-14.695 34.015,-14.555 33.975,-14.445 33.925,-14.355 33.865,-14.285 33.775,-14.235 33.675,-14.205 33.565,-14.185 33.435,-14.185 33.335,-14.185 33.225,-14.185 33.115,-14.185 33.005,-14.185 32.895,-14.185 32.785,-14.185 32.675,-14.185 32.565,-14.185 32.565,-14.225 32.565,-14.275 32.565,-14.325 32.565,-14.375 32.565,-14.425 32.565,-14.475 32.565,-14.525 32.565,-14.565 32.665,-14.565 "
       class="l21" />
    <polygon
       style="fill:#ffffff;fill-opacity:1;stroke:none"
       id="polygon401"
       points="33.785,-16.655 33.685,-16.655 33.585,-16.655 33.485,-16.655 33.385,-16.655 33.285,-16.655 33.185,-16.655 33.105,-16.645 33.035,-16.635 32.975,-16.625 32.925,-16.595 32.885,-16.565 32.855,-16.515 32.845,-16.465 32.835,-16.405 32.845,-16.325 32.855,-16.265 32.885,-16.215 32.935,-16.175 32.985,-16.145 33.055,-16.115 33.145,-16.105 33.245,-16.105 33.335,-16.105 33.425,-16.105 33.515,-16.105 33.615,-16.105 33.705,-16.105 33.795,-16.105 33.895,-16.105 33.985,-16.105 33.985,-16.055 33.985,-16.005 33.985,-15.955 33.985,-15.905 33.985,-15.855 33.985,-15.815 33.985,-15.765 33.985,-15.715 33.805,-15.715 33.625,-15.715 33.455,-15.715 33.275,-15.715 33.095,-15.715 32.925,-15.715 32.745,-15.715 32.565,-15.715 32.565,-15.765 32.565,-15.815 32.565,-15.855 32.565,-15.905 32.565,-15.945 32.565,-15.995 32.565,-16.045 32.565,-16.085 32.595,-16.085 32.615,-16.085 32.645,-16.085 32.665,-16.085 32.695,-16.085 32.715,-16.085 32.745,-16.085 32.765,-16.085 32.765,-16.095 32.705,-16.135 32.665,-16.175 32.625,-16.225 32.585,-16.285 32.565,-16.345 32.545,-16.405 32.535,-16.465 32.535,-16.525 32.545,-16.665 32.575,-16.775 32.625,-16.865 32.695,-16.935 32.775,-16.985 32.875,-17.015 32.985,-17.035 33.115,-17.045 33.225,-17.045 33.335,-17.045 33.435,-17.045 33.545,-17.045 33.655,-17.045 33.765,-17.045 33.875,-17.045 33.985,-17.045 33.985,-16.995 33.985,-16.945 33.985,-16.895 33.985,-16.845 33.985,-16.795 33.985,-16.745 33.985,-16.705 33.985,-16.655 33.885,-16.655 "
       class="l21" />
    <polygon
       style="fill:#ffffff;fill-opacity:1;stroke:none"
       id="polygon403"
       points="30.765,-13.385 30.815,-13.345 30.855,-13.285 30.875,-13.205 30.875,-13.125 30.865,-13.075 30.845,-13.025 30.825,-12.995 30.795,-12.965 30.755,-12.945 30.725,-12.935 30.695,-12.935 30.665,-12.945 30.635,-12.965 30.615,-12.985 30.595,-13.005 30.585,-13.035 30.575,-13.055 30.565,-13.075 30.555,-13.085 30.545,-13.065 30.545,-13.045 30.535,-13.005 30.535,-12.965 30.535,-12.925 30.545,-12.865 30.565,-12.815 30.585,-12.765 30.615,-12.725 30.645,-12.675 30.695,-12.645 30.755,-12.615 30.815,-12.595 30.905,-12.585 30.995,-12.575 31.155,-12.575 31.315,-12.575 31.475,-12.575 31.635,-12.575 31.795,-12.575 31.955,-12.575 32.115,-12.575 32.275,-12.575 32.275,-12.585 32.245,-12.605 32.215,-12.635 32.175,-12.665 32.125,-12.715 32.065,-12.765 32.005,-12.825 31.935,-12.875 31.865,-12.945 31.805,-13.005 31.745,-13.055 31.705,-13.105 31.665,-13.155 31.635,-13.205 31.625,-13.265 31.625,-13.335 31.625,-13.455 31.605,-13.575 31.575,-13.685 31.535,-13.785 31.475,-13.885 31.405,-13.965 31.325,-14.045 31.235,-14.115 31.055,-14.215 30.875,-14.265 30.695,-14.275 30.535,-14.245 30.395,-14.195 30.275,-14.125 30.185,-14.045 30.145,-13.965 30.165,-13.965 30.195,-13.965 30.225,-13.965 30.255,-13.955 30.285,-13.945 30.305,-13.915 30.315,-13.885 30.315,-13.855 30.315,-13.815 30.295,-13.775 30.275,-13.735 30.255,-13.705 30.225,-13.665 30.205,-13.635 30.175,-13.605 30.135,-13.585 30.105,-13.565 30.065,-13.555 30.035,-13.545 30.005,-13.555 29.985,-13.565 29.955,-13.575 29.925,-13.595 29.895,-13.635 29.875,-13.675 29.865,-13.725 29.855,-13.765 29.855,-13.795 29.865,-13.825 29.865,-13.845 29.865,-13.855 29.855,-13.845 29.825,-13.805 29.795,-13.745 29.765,-13.665 29.735,-13.575 29.735,-13.475 29.755,-13.365 29.815,-13.255 29.895,-13.165 29.965,-13.115 30.055,-13.085 30.135,-13.085 30.225,-13.105 30.315,-13.155 30.395,-13.225 30.485,-13.305 30.565,-13.375 30.635,-13.405 30.705,-13.405 "
       class="l21" />
  </g>
  <rect
     class="l21"
     x="-4.2501078"
     y="-19.714403"
     width="0.45719999"
     height="0.76200002"
     id="rect413"
     style="fill:#ce473a;fill-opacity:1" />
  <rect
     class="l21"
     x="-4.2501078"
     y="-14.634326"
     width="0.45719999"
     height="0.76200002"
     id="rect427"
     style="fill:#ce473a;fill-opacity:1" />
  <rect
     class="l21"
     x="-4.2501078"
     y="-18.063524"
     width="0.45719999"
     height="0.76200002"
     id="rect441"
     style="fill:#ce473a;fill-opacity:1" />
  <rect
     class="l21"
     x="-4.2501078"
     y="-16.412401"
     width="0.45719999"
     height="0.76200002"
     id="rect455"
     style="fill:#ce473a;fill-opacity:1" />
  <rect
     class="l21"
     x="3.7929068"
     y="12.094531"
     width="0.45719999"
     height="0.76200002"
     transform="scale(-1,-1)"
     id="rect469"
     style="fill:#ce473a;fill-opacity:1" />
  <rect
     class="l21"
     x="-2.0490921"
     y="7.3953114"
     width="0.45719999"
     height="0.76200002"
     transform="scale(-1,-1)"
     id="rect483"
     style="fill:#ce473a;fill-opacity:1" />
  <rect
     class="l21"
     x="-2.0490921"
     y="9.4275389"
     width="0.45719999"
     height="0.76200002"
     transform="scale(-1,-1)"
     id="rect497"
     style="fill:#ce473a;fill-opacity:1" />
  <rect
     class="l21"
     x="-5.2875924"
     y="11.840381"
     width="0.45719999"
     height="0.76200002"
     transform="scale(-1,-1)"
     id="rect511"
     style="fill:#ce473a;fill-opacity:1" />
  <rect
     class="l21"
     x="-8.2720928"
     y="11.840381"
     width="0.45719999"
     height="0.76200002"
     transform="scale(-1,-1)"
     id="rect525"
     style="fill:#ce473a;fill-opacity:1" />
  <rect
     class="l21"
     x="21.644823"
     y="3.9159932"
     width="0.45719999"
     height="0.76200002"
     transform="matrix(0,-1,1,0,0,0)"
     id="rect539"
     style="fill:#ce473a;fill-opacity:1" />
  <rect
     class="l21"
     x="22.025927"
     y="-0.71950853"
     width="0.45719999"
     height="0.76200002"
     transform="matrix(0,-1,1,0,0,0)"
     id="rect553"
     style="fill:#ce473a;fill-opacity:1" />
  <rect
     class="l21"
     x="3.7508931"
     y="-24.794481"
     width="0.45719999"
     height="0.76200002"
     id="rect567"
     style="fill:#ce473a;fill-opacity:1" />
  <rect
     class="l21"
     x="0.70289314"
     y="-24.794481"
     width="0.45719999"
     height="0.76200002"
     id="rect581"
     style="fill:#ce473a;fill-opacity:1" />
  <rect
     class="l21"
     x="-7.5100923"
     y="23.143358"
     width="0.45719999"
     height="0.76200002"
     transform="scale(-1,-1)"
     id="rect595"
     style="fill:#ce473a;fill-opacity:1" />
  <rect
     class="l21"
     x="6.0368924"
     y="-2.0613272"
     width="0.45719999"
     height="0.76200002"
     id="rect609"
     style="fill:#ce473a;fill-opacity:1" />
  <rect
     class="l21"
     x="-4.2501078"
     y="-11.078418"
     width="0.45719999"
     height="0.76200002"
     id="rect623"
     style="fill:#ce473a;fill-opacity:1" />
  <g
     id="g677"
     style="stroke:#ffffff;stroke-opacity:1"
     transform="translate(-20.912507,-0.41045199)">
    <title
       id="title679">PART SJ4</title>
    <line
       id="line681"
       style="fill:none;stroke:#ffffff;stroke-width:0.2032;stroke-linecap:round;stroke-opacity:1"
       y2="-1.2065001"
       x2="8.6359997"
       y1="-2.8575001"
       x1="8.6359997"
       class="l21" />
    <path
       inkscape:connector-curvature="0"
       id="path683"
       style="fill:none;stroke:#ffffff;stroke-width:0.2032;stroke-linecap:round;stroke-opacity:1"
       d="m 6.858,-3.1115 a 0.254,0.254 0 0 0 -0.254,0.254"
       class="l21" />
    <path
       inkscape:connector-curvature="0"
       id="path685"
       style="fill:none;stroke:#ffffff;stroke-width:0.2032;stroke-linecap:round;stroke-opacity:1"
       d="m 6.604,-1.2065 a 0.254,0.254 0 0 0 0.254,0.254"
       class="l21" />
    <path
       inkscape:connector-curvature="0"
       id="path687"
       style="fill:none;stroke:#ffffff;stroke-width:0.2032;stroke-linecap:round;stroke-opacity:1"
       d="m 8.382,-0.9525 a 0.254,0.254 0 0 0 0.254,-0.254"
       class="l21" />
    <path
       inkscape:connector-curvature="0"
       id="path689"
       style="fill:none;stroke:#ffffff;stroke-width:0.2032;stroke-linecap:round;stroke-opacity:1"
       d="M 8.636,-2.8575 A 0.254,0.254 0 0 0 8.382,-3.1115"
       class="l21" />
    <line
       id="line691"
       style="fill:none;stroke:#ffffff;stroke-width:0.2032;stroke-linecap:round;stroke-opacity:1"
       y2="-2.8575001"
       x2="6.6040001"
       y1="-1.2065001"
       x1="6.6040001"
       class="l21" />
  </g>
  <g
     style="stroke-width:0"
     id="g7475"
     transform="matrix(-0.35277803,0,0,-0.35277803,-2.2282164,-17.823952)">
    <g
       style="stroke-width:0"
       id="audio-jack-3.5mm-smd">
      <g
         id="g7478"
         transform="matrix(0,1,-1,0,32.567,-13.487)">
        <g
           style="stroke-width:0"
           id="g7480">
          <polygon
             style="fill:#2b2b2b;stroke-width:0"
             id="polygon7482"
             points="42.753,5.406 42.753,13.681 42.753,13.681 42.753,15.579 47.023,15.579 47.023,3.505 42.753,3.505 42.753,5.406 " />
          <polygon
             style="fill:#292929;stroke-width:0"
             id="polygon7484"
             points="47.023,13.406 42.753,13.406 42.753,13.681 42.753,13.681 42.753,15.147 47.023,15.147 " />
          <polygon
             style="fill:#292929;stroke-width:0"
             id="polygon7486"
             points="47.023,5.979 42.753,5.979 42.753,5.372 42.753,5.372 42.753,3.902 47.023,3.902 " />
          <rect
             style="fill:#333333;stroke-width:0"
             id="rect7488"
             height="3.2090001"
             y="7.3720102"
             x="42.752998"
             width="4.25" />
          <rect
             style="fill:#383838;stroke-width:0"
             id="rect7490"
             height="1.762"
             y="8.29599"
             x="42.752998"
             width="4.25" />
          <rect
             style="fill:#212121;stroke-width:0"
             id="rect7492"
             height="0.435"
             y="15.146"
             x="42.752998"
             width="4.2709999" />
          <rect
             style="fill:#212121;stroke-width:0"
             id="rect7494"
             height="0.396"
             y="3.507"
             x="42.752998"
             width="4.2709999" />
          <rect
             style="fill:#a1a1a1;stroke-width:0"
             id="rect7496"
             height="12.07"
             y="3.507"
             x="47.006001"
             width="1.883" />
          <rect
             style="fill:#ababab;stroke-width:0"
             id="rect7498"
             height="7.42904"
             y="5.9780002"
             x="47.006001"
             width="1.883" />
          <rect
             style="fill:#c7c7c7;stroke-width:0"
             id="rect7500"
             height="3.2090001"
             y="7.3720102"
             x="47.006001"
             width="1.883" />
          <rect
             style="fill:#e6e6e6;stroke-width:0"
             id="rect7502"
             height="1.762"
             y="8.29599"
             x="47.006001"
             width="1.883" />
          <rect
             style="fill:#737373;stroke-width:0"
             id="rect7504"
             height="0.396"
             y="3.507"
             x="47.006001"
             width="1.883" />
          <rect
             style="fill:#737373;stroke-width:0"
             id="rect7506"
             height="0.396"
             y="15.165"
             x="47.006001"
             width="1.883" />
          <g
             style="stroke-width:0"
             id="g7508">
            <g
               style="stroke-width:0"
               id="g7510">
              <rect
                 style="fill:#333333;stroke-width:0"
                 id="rect7512"
                 height="19.08"
                 y="0"
                 x="2.835"
                 width="40.317001" />
            </g>
          </g>
          <rect
             style="stroke-width:0"
             id="rect7514"
             height="2.5280001"
             y="0.0080000004"
             x="32.273998"
             width="5.191" />
          <rect
             style="stroke-width:0"
             id="rect7516"
             height="2.529"
             y="16.551001"
             x="27.082001"
             width="5.191" />
          <rect
             style="fill:#c7c7c7;stroke-width:0"
             id="rect7518"
             height="0.83499902"
             y="0.0080000004"
             x="32.273998"
             width="5.191" />
          <rect
             style="fill:#c7c7c7;stroke-width:0"
             id="rect7520"
             height="0.83600003"
             y="18.243999"
             x="27.082001"
             width="5.191" />
        </g>
      </g>
    </g>
  </g>
  <rect
     style="fill:#000000;fill-opacity:1;fill-rule:nonzero;stroke:#ffffff;stroke-width:0;stroke-linecap:round;stroke-linejoin:bevel;stroke-miterlimit:4;stroke-opacity:1;stroke-dasharray:none;stroke-dashoffset:0"
     id="rect7365"
     width="4.4097223"
     height="4.4097223"
     x="1.2489929"
     y="-18.762011" />
  <rect
     width="1.9906218"
     x="-14.277645"
     y="-3.3362296"
     height="1.8324403"
     id="rect6949-1"
     style="fill:#ffffff;fill-opacity:0.15;stroke:none" />
  <circle
     cx="7.1999998"
     cy="126"
     connectorname="AREF"
     r="2.052"
     id="connector94pin-1"
     d="m 9.2519999,126 c 0,1.13329 -0.9187118,2.052 -2.0520001,2.052 -1.1332883,0 -2.052,-0.91871 -2.052,-2.052 0,-1.13329 0.9187117,-2.052 2.052,-2.052 1.1332883,0 2.0520001,0.91871 2.0520001,2.052 z"
     sodipodi:cx="7.1999998"
     sodipodi:cy="126"
     sodipodi:rx="2.052"
     sodipodi:ry="2.052"
     style="fill:none;stroke:#9a916c;stroke-width:1.22399998"
     transform="matrix(0.35277803,0,0,0.35277803,0.6857997,-46.140752)" />
  <circle
     cx="7.1999998"
     cy="126"
     connectorname="AREF"
     r="2.052"
     id="connector94pin-4"
     d="m 9.2519999,126 c 0,1.13329 -0.9187118,2.052 -2.0520001,2.052 -1.1332883,0 -2.052,-0.91871 -2.052,-2.052 0,-1.13329 0.9187117,-2.052 2.052,-2.052 1.1332883,0 2.0520001,0.91871 2.0520001,2.052 z"
     sodipodi:cx="7.1999998"
     sodipodi:cy="126"
     sodipodi:rx="2.052"
     sodipodi:ry="2.052"
     style="fill:none;stroke:#9a916c;stroke-width:1.22399998"
     transform="matrix(0.35277803,0,0,0.35277803,-1.8542003,-46.140752)" />
  <circle
     cx="7.1999998"
     cy="126"
     connectorname="AREF"
     r="2.052"
     id="connector94pin-2"
     d="m 9.2519999,126 c 0,1.13329 -0.9187118,2.052 -2.0520001,2.052 -1.1332883,0 -2.052,-0.91871 -2.052,-2.052 0,-1.13329 0.9187117,-2.052 2.052,-2.052 1.1332883,0 2.0520001,0.91871 2.0520001,2.052 z"
     sodipodi:cx="7.1999998"
     sodipodi:cy="126"
     sodipodi:rx="2.052"
     sodipodi:ry="2.052"
     style="fill:none;stroke:#9a916c;stroke-width:1.22399998"
     transform="matrix(0.35277803,0,0,0.35277803,-4.3942003,-46.140752)" />
  <circle
     cx="7.1999998"
     cy="126"
     connectorname="AREF"
     r="2.052"
     id="connector94pin-3"
     d="m 9.2519999,126 c 0,1.13329 -0.9187118,2.052 -2.0520001,2.052 -1.1332883,0 -2.052,-0.91871 -2.052,-2.052 0,-1.13329 0.9187117,-2.052 2.052,-2.052 1.1332883,0 2.0520001,0.91871 2.0520001,2.052 z"
     sodipodi:cx="7.1999998"
     sodipodi:cy="126"
     sodipodi:rx="2.052"
     sodipodi:ry="2.052"
     style="fill:none;stroke:#9a916c;stroke-width:1.22399998"
     transform="matrix(0.35277803,0,0,0.35277803,-6.9342002,-46.140752)" />
  <circle
     cx="7.1999998"
     cy="126"
     connectorname="AREF"
     r="2.052"
     id="connector94pin-22"
     d="m 9.2519999,126 c 0,1.13329 -0.9187118,2.052 -2.0520001,2.052 -1.1332883,0 -2.052,-0.91871 -2.052,-2.052 0,-1.13329 0.9187117,-2.052 2.052,-2.052 1.1332883,0 2.0520001,0.91871 2.0520001,2.052 z"
     sodipodi:cx="7.1999998"
     sodipodi:cy="126"
     sodipodi:rx="2.052"
     sodipodi:ry="2.052"
     style="fill:none;stroke:#9a916c;stroke-width:1.22399998"
     transform="matrix(0.35277803,0,0,0.35277803,-9.4742002,-46.140752)" />
  <circle
     cx="7.1999998"
     cy="126"
     connectorname="AREF"
     r="2.052"
     id="connector94pin-16"
     d="m 9.2519999,126 c 0,1.13329 -0.9187118,2.052 -2.0520001,2.052 -1.1332883,0 -2.052,-0.91871 -2.052,-2.052 0,-1.13329 0.9187117,-2.052 2.052,-2.052 1.1332883,0 2.0520001,0.91871 2.0520001,2.052 z"
     sodipodi:cx="7.1999998"
     sodipodi:cy="126"
     sodipodi:rx="2.052"
     sodipodi:ry="2.052"
     style="fill:none;stroke:#9a916c;stroke-width:1.22399998"
     transform="matrix(0.35277803,0,0,0.35277803,-12.0142,-46.140752)" />
  <circle
     cx="7.1999998"
     cy="126"
     connectorname="AREF"
     r="2.052"
     id="connector94pin-8"
     d="m 9.2519999,126 c 0,1.13329 -0.9187118,2.052 -2.0520001,2.052 -1.1332883,0 -2.052,-0.91871 -2.052,-2.052 0,-1.13329 0.9187117,-2.052 2.052,-2.052 1.1332883,0 2.0520001,0.91871 2.0520001,2.052 z"
     sodipodi:cx="7.1999998"
     sodipodi:cy="126"
     sodipodi:rx="2.052"
     sodipodi:ry="2.052"
     style="fill:none;stroke:#9a916c;stroke-width:1.22399998"
     transform="matrix(0.35277803,0,0,0.35277803,-22.1742,-62.650752)" />
  <circle
     cx="7.1999998"
     cy="126"
     connectorname="AREF"
     r="2.052"
     id="connector94pin-76"
     d="m 9.2519999,126 c 0,1.13329 -0.9187118,2.052 -2.0520001,2.052 -1.1332883,0 -2.052,-0.91871 -2.052,-2.052 0,-1.13329 0.9187117,-2.052 2.052,-2.052 1.1332883,0 2.0520001,0.91871 2.0520001,2.052 z"
     sodipodi:cx="7.1999998"
     sodipodi:cy="126"
     sodipodi:rx="2.052"
     sodipodi:ry="2.052"
     style="fill:none;stroke:#9a916c;stroke-width:1.22399998"
     transform="matrix(0.35277803,0,0,0.35277803,-22.1742,-60.110752)" />
  <circle
     cx="7.1999998"
     cy="126"
     connectorname="AREF"
     r="2.052"
     id="connector94pin-18"
     d="m 9.2519999,126 c 0,1.13329 -0.9187118,2.052 -2.0520001,2.052 -1.1332883,0 -2.052,-0.91871 -2.052,-2.052 0,-1.13329 0.9187117,-2.052 2.052,-2.052 1.1332883,0 2.0520001,0.91871 2.0520001,2.052 z"
     sodipodi:cx="7.1999998"
     sodipodi:cy="126"
     sodipodi:rx="2.052"
     sodipodi:ry="2.052"
     style="fill:none;stroke:#9a916c;stroke-width:1.22399998"
     transform="matrix(0.35277803,0,0,0.35277803,-22.1742,-65.190752)" />
</svg>
