<?xml version="1.0" encoding="UTF-8" standalone="no"?>
<svg
   xmlns:osb="http://www.openswatchbook.org/uri/2009/osb"
   xmlns:dc="http://purl.org/dc/elements/1.1/"
   xmlns:cc="http://creativecommons.org/ns#"
   xmlns:rdf="http://www.w3.org/1999/02/22-rdf-syntax-ns#"
   xmlns:svg="http://www.w3.org/2000/svg"
   xmlns="http://www.w3.org/2000/svg"
   xmlns:sodipodi="http://sodipodi.sourceforge.net/DTD/sodipodi-0.dtd"
   xmlns:inkscape="http://www.inkscape.org/namespaces/inkscape"
   version="1.1"
   width="126.45177"
   height="99.544785"
   viewBox="-20.912666 -30.313 35.687501 28.09375"
   id="svg2"
   inkscape:version="0.48.4 r9939"
   sodipodi:docname="sparkfun_sensors_ad8232_pcb.svg">
  <metadata
     id="metadata741">
    <rdf:RDF>
      <cc:Work
         rdf:about="">
        <dc:format>image/svg+xml</dc:format>
        <dc:type
           rdf:resource="http://purl.org/dc/dcmitype/StillImage" />
        <dc:title>C:/Users/casey.kuhns/Documents/GitHub/AD8232_Heart_Rate_Monitor/Hardware/AD8232_Heart_Rate_Monitor.brd</dc:title>
      </cc:Work>
    </rdf:RDF>
  </metadata>
  <sodipodi:namedview
     pagecolor="#ffffff"
     bordercolor="#666666"
     borderopacity="1"
     objecttolerance="10"
     gridtolerance="10000"
     guidetolerance="10"
     inkscape:pageopacity="0"
     inkscape:pageshadow="2"
     inkscape:window-width="1920"
     inkscape:window-height="1178"
     id="namedview739"
     showgrid="true"
     showguides="false"
     inkscape:guide-bbox="true"
     inkscape:zoom="8"
     inkscape:cx="45.760235"
     inkscape:cy="56.265411"
     inkscape:window-x="-8"
     inkscape:window-y="-8"
     inkscape:window-maximized="1"
     inkscape:current-layer="layer1"
     fit-margin-top="0"
     fit-margin-left="0"
     fit-margin-right="0"
     fit-margin-bottom="0"
     units="in">
    <inkscape:grid
       type="xygrid"
       id="grid8124"
       empspacing="5"
       visible="true"
       enabled="true"
       snapvisiblegridlinesonly="true"
       units="in"
       spacingx="0.01in"
       spacingy="0.01in"
       originx="0.0022080315in"
       originy="-0.097303083in" />
  </sodipodi:namedview>
  <title
     id="title4">C:/Users/casey.kuhns/Documents/GitHub/AD8232_Heart_Rate_Monitor/Hardware/AD8232_Heart_Rate_Monitor.brd</title>
  <desc
     id="desc6">generated by eagle2svg 1.2, developed by http://www.nicai-systems.de</desc>
  <defs
     id="defs8">
    <linearGradient
       id="linearGradient7346"
       osb:paint="solid">
      <stop
         style="stop-color:#000000;stop-opacity:1;"
         offset="0"
         id="stop7348" />
    </linearGradient>
    <style
       type="text/css"
       id="style10">
path.l20 {stroke:#c8c832; fill:none; }
line.l20 {stroke:#c8c832; fill:none; }
circle.l20 {stroke:#c8c832; fill:none; }
circle.j20 {fill:#c8c832; }
rect.l20 {fill:#c8c832; }
text.l20 {font-family:sans-serif; fill:#c8c832; }
polygon.l20 {fill:#c8c832; }
path.l21 {stroke:#c8c832; fill:none; }
line.l21 {stroke:#c8c832; fill:none; }
circle.l21 {stroke:#c8c832; fill:none; }
circle.j21 {fill:#c8c832; }
rect.l21 {fill:#c8c832; }
text.l21 {font-family:sans-serif; fill:#c8c832; }
polygon.l21 {fill:#c8c832; }
path.l45 {stroke:#c8c8c8; fill:none; }
line.l45 {stroke:#c8c8c8; fill:none; }
circle.l45 {stroke:#c8c8c8; fill:none; }
circle.j45 {fill:#c8c8c8; }
rect.l45 {fill:#c8c8c8; }
text.l45 {font-family:sans-serif; fill:#c8c8c8; }
polygon.l45 {fill:#c8c8c8; }
path.l51 {stroke:#c8c832; fill:none; }
line.l51 {stroke:#c8c832; fill:none; }
circle.l51 {stroke:#c8c832; fill:none; }
circle.j51 {fill:#c8c832; }
rect.l51 {fill:#c8c832; }
text.l51 {font-family:sans-serif; fill:#c8c832; }
polygon.l51 {fill:#c8c832; }
</style>
  </defs>
  <g
     id="g177"
     transform="translate(0.056084,-9.6538883)">
    <title
       id="title179">PART FID1</title>
  </g>
  <g
     id="g181"
     transform="translate(0.056084,-9.6538883)">
    <title
       id="title183">PART FID2</title>
  </g>
  <g
     inkscape:groupmode="layer"
     id="layer1"
     inkscape:label="Layer 1"
     style="display:inline">
    <path
       style="fill:none;stroke:#000000;stroke-width:0.14111111;stroke-miterlimit:4;stroke-opacity:1;stroke-dasharray:none"
       d="m 14.703417,-30.227752 -35.559999,0 0,0 0,27.94 35.559999,0 0,-27.94 z"
       id="silkscreen"
       inkscape:connector-curvature="0"
       transform="translate(5.2040505e-8,-1.2718184e-6)" />
    <path
       transform="translate(5.2040505e-8,-1.2718184e-6)"
       style="fill:none;stroke:#000000;stroke-width:0.14111111;stroke-miterlimit:4;stroke-opacity:1;stroke-dasharray:none"
       d="m -18.316582,-29.339252 c 0.911823,0 1.649236,0.7374 1.649236,1.6492 0,0.9118 -0.737413,1.6492 -1.649236,1.6492 -0.911822,0 -1.649237,-0.7374 -1.649237,-1.6492 0,-0.9118 0.737415,-1.6492 1.649237,-1.6492 z"
       id="path3925"
       inkscape:connector-curvature="0" />
    <path
       transform="translate(5.2040505e-8,-1.2718184e-6)"
       style="fill:none;stroke:#000000;stroke-width:0.14111111;stroke-miterlimit:4;stroke-opacity:1;stroke-dasharray:none"
       d="m 12.163417,-6.4881521 c 0.911824,0 1.649236,0.7375 1.649236,1.6493 0,0.9118 -0.737412,1.658 -1.649236,1.658 -0.911823,0 -1.649236,-0.7462 -1.649236,-1.658 0,-0.9118 0.737413,-1.6493 1.649236,-1.6493 z"
       id="path3915"
       inkscape:connector-curvature="0" />
    <path
       transform="translate(5.2040505e-8,-1.2718184e-6)"
       style="fill:none;stroke:#000000;stroke-width:0.14111111;stroke-miterlimit:4;stroke-opacity:1;stroke-dasharray:none"
       d="m -18.316582,-6.4781521 c 0.911823,0 1.649236,0.7374 1.649236,1.6492 0,0.9118 -0.737413,1.6492 -1.649236,1.6492 -0.911822,0 -1.649237,-0.7374 -1.649237,-1.6492 0,-0.9118 0.737415,-1.6492 1.649237,-1.6492 z"
       id="path3913"
       inkscape:connector-curvature="0" />
    <path
       transform="translate(5.2040505e-8,-1.2718184e-6)"
       style="fill:none;stroke:#000000;stroke-width:0.14111111;stroke-miterlimit:4;stroke-opacity:1;stroke-dasharray:none;display:inline"
       d="m 12.163417,-29.339252 c 0.911824,0 1.649236,0.7374 1.649236,1.6492 0,0.9118 -0.737412,1.6492 -1.649236,1.6492 -0.911823,0 -1.649236,-0.7374 -1.649236,-1.6492 0,-0.9118 0.737413,-1.6492 1.649236,-1.6492 z"
       id="path3923"
       inkscape:connector-curvature="0" />
    <g
       transform="translate(5.2040505e-8,-1.2718184e-6)"
       style="display:inline"
       id="copper0">
      <circle
         transform="matrix(0.35277803,0,0,0.35277803,-6.8781161,-48.016252)"
         style="fill:none;stroke:#f8bd13;stroke-width:1.22399998;stroke-opacity:1;display:inline"
         sodipodi:ry="2.052"
         sodipodi:rx="2.052"
         sodipodi:cy="126"
         sodipodi:cx="7.1999998"
         d="m 9.2519999,126 c 0,1.13329 -0.9187118,2.052 -2.0520001,2.052 -1.1332883,0 -2.052,-0.91871 -2.052,-2.052 0,-1.13329 0.9187117,-2.052 2.052,-2.052 1.1332883,0 2.0520001,0.91871 2.0520001,2.052 z"
         id="connector5pad"
         r="2.052"
         connectorname="AREF"
         cy="126"
         cx="7.1999998" />
      <circle
         transform="matrix(0.35277803,0,0,0.35277803,-4.3381162,-48.016252)"
         style="fill:none;stroke:#f8bd13;stroke-width:1.22399998;stroke-opacity:1"
         sodipodi:ry="2.052"
         sodipodi:rx="2.052"
         sodipodi:cy="126"
         sodipodi:cx="7.1999998"
         d="m 9.2519999,126 c 0,1.13329 -0.9187118,2.052 -2.0520001,2.052 -1.1332883,0 -2.052,-0.91871 -2.052,-2.052 0,-1.13329 0.9187117,-2.052 2.052,-2.052 1.1332883,0 2.0520001,0.91871 2.0520001,2.052 z"
         id="connector6pad"
         r="2.052"
         connectorname="AREF"
         cy="126"
         cx="7.1999998" />
      <circle
         inkscape:label="connector8pad"
         transform="matrix(0.35277803,0,0,0.35277803,0.74188358,-48.016252)"
         style="fill:none;stroke:#f8bd13;stroke-width:1.22399998;stroke-opacity:1;display:inline"
         sodipodi:ry="2.052"
         sodipodi:rx="2.052"
         sodipodi:cy="126"
         sodipodi:cx="7.1999998"
         d="m 9.2519999,126 c 0,1.13329 -0.9187118,2.052 -2.0520001,2.052 -1.1332883,0 -2.052,-0.91871 -2.052,-2.052 0,-1.13329 0.9187117,-2.052 2.052,-2.052 1.1332883,0 2.0520001,0.91871 2.0520001,2.052 z"
         id="connector8pad"
         r="2.052"
         connectorname="AREF"
         cy="126"
         cx="7.1999998" />
      <circle
         transform="matrix(0.35277803,0,0,0.35277803,-1.7981163,-48.016252)"
         style="fill:none;stroke:#f8bd13;stroke-width:1.22399998;stroke-opacity:1;display:inline"
         sodipodi:ry="2.052"
         sodipodi:rx="2.052"
         sodipodi:cy="126"
         sodipodi:cx="7.1999998"
         d="m 9.2519999,126 c 0,1.13329 -0.9187118,2.052 -2.0520001,2.052 -1.1332883,0 -2.052,-0.91871 -2.052,-2.052 0,-1.13329 0.9187117,-2.052 2.052,-2.052 1.1332883,0 2.0520001,0.91871 2.0520001,2.052 z"
         id="connector7pad"
         r="2.052"
         connectorname="AREF"
         cy="126"
         cx="7.1999998" />
      <circle
         transform="matrix(0.35277803,0,0,0.35277803,-11.958116,-48.016252)"
         style="fill:none;stroke:#f8bd13;stroke-width:1.22399998;stroke-opacity:1;display:inline"
         sodipodi:ry="2.052"
         sodipodi:rx="2.052"
         sodipodi:cy="126"
         sodipodi:cx="7.1999998"
         d="m 9.2519999,126 c 0,1.13329 -0.9187118,2.052 -2.0520001,2.052 -1.1332883,0 -2.052,-0.91871 -2.052,-2.052 0,-1.13329 0.9187117,-2.052 2.052,-2.052 1.1332883,0 2.0520001,0.91871 2.0520001,2.052 z"
         id="connector3pad"
         r="2.052"
         connectorname="AREF"
         cy="126"
         cx="7.1999998" />
      <circle
         transform="matrix(0.35277803,0,0,0.35277803,-9.4181162,-48.016252)"
         style="fill:#000000;fill-opacity:0;stroke:#f8bd13;stroke-width:1.22399998;stroke-opacity:1;display:inline"
         sodipodi:ry="2.052"
         sodipodi:rx="2.052"
         sodipodi:cy="126"
         sodipodi:cx="7.1999998"
         d="m 9.2519999,126 c 0,1.13329 -0.9187118,2.052 -2.0520001,2.052 -1.1332883,0 -2.052,-0.91871 -2.052,-2.052 0,-1.13329 0.9187117,-2.052 2.052,-2.052 1.1332883,0 2.0520001,0.91871 2.0520001,2.052 z"
         id="connector4pad"
         r="2.052"
         connectorname="AREF"
         cy="126"
         cx="7.1999998" />
      <circle
         transform="matrix(0.35277803,0,0,0.35277803,-22.118116,-61.986253)"
         style="fill:none;stroke:#f8bd13;stroke-width:1.22399998;stroke-opacity:1;display:inline"
         sodipodi:ry="2.052"
         sodipodi:rx="2.052"
         sodipodi:cy="126"
         sodipodi:cx="7.1999998"
         d="m 9.2519999,126 c 0,1.13329 -0.9187118,2.052 -2.0520001,2.052 -1.1332883,0 -2.052,-0.91871 -2.052,-2.052 0,-1.13329 0.9187117,-2.052 2.052,-2.052 1.1332883,0 2.0520001,0.91871 2.0520001,2.052 z"
         id="connector2pad"
         r="2.052"
         connectorname="AREF"
         cy="126"
         cx="7.1999998" />
      <circle
         transform="matrix(0.35277803,0,0,0.35277803,-22.118116,-67.066253)"
         style="fill:none;stroke:#f8bd13;stroke-width:1.22399998;stroke-opacity:1;display:inline"
         sodipodi:ry="2.052"
         sodipodi:rx="2.052"
         sodipodi:cy="126"
         sodipodi:cx="7.1999998"
         d="m 9.2519999,126 c 0,1.13329 -0.9187118,2.052 -2.0520001,2.052 -1.1332883,0 -2.052,-0.91871 -2.052,-2.052 0,-1.13329 0.9187117,-2.052 2.052,-2.052 1.1332883,0 2.0520001,0.91871 2.0520001,2.052 z"
         id="connector0pad"
         r="2.052"
         connectorname="AREF"
         cy="126"
         cx="7.1999998" />
      <circle
         transform="matrix(0.35277803,0,0,0.35277803,-22.118116,-64.526253)"
         style="fill:none;stroke:#f8bd13;stroke-width:1.22399998;stroke-opacity:1;display:inline"
         sodipodi:ry="2.052"
         sodipodi:rx="2.052"
         sodipodi:cy="126"
         sodipodi:cx="7.1999998"
         d="m 9.2519999,126 c 0,1.13329 -0.9187118,2.052 -2.0520001,2.052 -1.1332883,0 -2.052,-0.91871 -2.052,-2.052 0,-1.13329 0.9187117,-2.052 2.052,-2.052 1.1332883,0 2.0520001,0.91871 2.0520001,2.052 z"
         id="connector1pad"
         r="2.052"
         connectorname="AREF"
         cy="126"
         cx="7.1999998" />
    </g>
  </g>
</svg>
